<?xml version="1.0" encoding="UTF-8"?>
<!DOCTYPE svg PUBLIC "-//W3C//DTD SVG 1.1//EN" "http://www.w3.org/Graphics/SVG/1.1/DTD/svg11.dtd">
<!-- Creator: CorelDRAW -->
<svg xmlns="http://www.w3.org/2000/svg" xml:space="preserve" width="6.72in" height="6.72in" style="shape-rendering:geometricPrecision; text-rendering:geometricPrecision; image-rendering:optimizeQuality; fill-rule:evenodd; clip-rule:evenodd"
viewBox="0 0 6.72 6.72"
 xmlns:xlink="http://www.w3.org/1999/xlink">
 <defs>
  <style type="text/css">
   <![CDATA[
    .fil1 {fill:white;fill-rule:nonzero}
    .fil0 {fill:url(#id0)}
   ]]>
  </style>
  <linearGradient id="id0" gradientUnits="userSpaceOnUse" x1="1.38953" y1="-0.0529488" x2="5.33047" y2="6.77295">
   <stop offset="0" style="stop-color:#444FF5"/>
   <stop offset="0.490196" style="stop-color:#21BFDB"/>
   <stop offset="1" style="stop-color:#1DABB6"/>
  </linearGradient>
 </defs>
 <g id="Layer_x0020_1">
  <metadata id="CorelCorpID_0Corel-Layer"/>
  <path class="fil0" d="M6.31603 1.65333c0.942567,1.63257 0.383209,3.72013 -1.24937,4.6627 -1.63257,0.942567 -3.72013,0.383209 -4.6627,-1.24937 -0.942567,-1.63257 -0.383209,-3.72013 1.24937,-4.6627 1.63257,-0.942567 3.72013,-0.383209 4.6627,1.24937z"/>
  <g id="_290363576">
   <path id="_290362880" class="fil1" d="M2.42937 2.29392l3.02959 0c0.0373898,0 0.0677047,0.030315 0.0677047,0.0677087 0,0.00805512 -0.00140945,0.0157874 -0.00399213,0.0229528l-0.55235 2.15189 -5.90551e-005 0.000251969c-0.00796457,0.0310315 -0.0358819,0.0514134 -0.0665827,0.0507913l-1.97221 0c-0.0337677,0 -0.0617598,-0.0247205 -0.066874,-0.0570512l-0.551106 -2.14705c-0.000480315,-0.00141732 -0.00092126,-0.00285827 -0.00131496,-0.00432677l-0.000173228 -0.000645669 -7.87402e-005 2.3622e-005c-0.000216535,-0.000850394 -0.000413386,-0.00169685 -0.000598425,-0.00255118l-0.203709 -0.760264 -0.846575 0c-0.0373898,0 -0.0677047,-0.030315 -0.0677047,-0.0677047 0,-0.0373937 0.030315,-0.0677087 0.0677047,-0.0677087l0.898441 0c0.0325906,0 0.0598031,0.0230315 0.0662559,0.0537008l0.20363 0.759984zm2.94261 0.135417l-2.90748 0 0.519209 2.02276 1.86907 0 0.519205 -2.02276z"/>
   <path id="_290363096" class="fil1" d="M3.17961 5.10435c0.0380591,0 0.0725197,-0.0154252 0.0974528,-0.0403622 0.0249331,-0.0249331 0.0403583,-0.0593937 0.0403583,-0.0974528 0,-0.0380591 -0.0154252,-0.0725197 -0.0403622,-0.0974488 -0.0249291,-0.024937 -0.0593898,-0.0403622 -0.0974488,-0.0403622 -0.0380591,0 -0.0725197,0.0154252 -0.0974528,0.0403583 -0.024937,0.0249331 -0.0403622,0.0593937 -0.0403622,0.0974528 0,0.038063 0.0154252,0.0725236 0.0403622,0.0974528 0.0249291,0.024937 0.0593898,0.0403622 0.0974528,0.0403622zm0.193197 0.0553858c-0.0494449,0.0494449 -0.117756,0.0800315 -0.193197,0.0800315 -0.0754449,0 -0.14376,-0.0305866 -0.193201,-0.0800315 -0.0494449,-0.0494409 -0.0800315,-0.117756 -0.0800315,-0.193201 0,-0.0754409 0.0305866,-0.143752 0.0800315,-0.193197 0.0494488,-0.0494409 0.11776,-0.0800315 0.193201,-0.0800315 0.0754409,0 0.143756,0.0305906 0.193197,0.0800354 0.0494449,0.049437 0.0800315,0.117752 0.0800315,0.193193 0,0.0754409 -0.0305866,0.143752 -0.0800315,0.193201z"/>
   <path id="_290363144" class="fil1" d="M4.65685 5.23977c-0.0754409,0 -0.143752,-0.0305866 -0.193197,-0.0800315 -0.0494409,-0.0494488 -0.0800315,-0.11776 -0.0800315,-0.193201 0,-0.0754409 0.0305906,-0.143756 0.0800354,-0.193193 0.049437,-0.0494449 0.117752,-0.0800354 0.193193,-0.0800354 0.0754409,0 0.143752,0.0305906 0.193201,0.0800315 0.0494449,0.0494449 0.0800315,0.117756 0.0800315,0.193197 0,0.0754449 -0.0305866,0.14376 -0.0800315,0.193201 -0.0494409,0.0494449 -0.117756,0.0800315 -0.193201,0.0800315zm-0.0974528 -0.17578c0.0249331,0.024937 0.0593937,0.0403622 0.0974528,0.0403622 0.038063,0 0.0725236,-0.0154252 0.0974567,-0.0403622 0.0249331,-0.0249291 0.0403583,-0.0593898 0.0403583,-0.0974528 0,-0.0380591 -0.0154252,-0.0725197 -0.0403583,-0.0974528 -0.024937,-0.0249331 -0.0593976,-0.0403583 -0.0974567,-0.0403583 -0.0380591,0 -0.0725197,0.0154252 -0.0974488,0.0403622 -0.0249331,0.0249291 -0.0403622,0.0593898 -0.0403622,0.0974488 0,0.0380591 0.0154291,0.0725197 0.0403583,0.0974528z"/>
   <path id="_290363456" class="fil1" d="M2.74188 2.83931c-0.0373937,0 -0.0677087,0.030315 -0.0677087,0.0677087 0,0.0373937 0.030315,0.0677087 0.0677087,0.0677087l2.3527 0c0.0373937,0 0.0677087,-0.030315 0.0677087,-0.0677087 0,-0.0373937 -0.030315,-0.0677087 -0.0677087,-0.0677087l-2.3527 0z"/>
   <path id="_290363360" class="fil1" d="M2.98551 3.1066c-0.0373937,0 -0.0677087,0.030315 -0.0677087,0.0677087 0,0.0373937 0.030315,0.0677087 0.0677087,0.0677087l1.86545 0c0.0373937,0 0.0677087,-0.030315 0.0677087,-0.0677087 0,-0.0373937 -0.030315,-0.0677087 -0.0677087,-0.0677087l-1.86545 0z"/>
   <path id="_290363432" class="fil1" d="M3.25709 3.37389c-0.0373898,0 -0.0677087,0.0303189 -0.0677087,0.0677087 0,0.0373937 0.0303189,0.0677087 0.0677087,0.0677087l1.32229 0c0.0373898,0 0.0677087,-0.030315 0.0677087,-0.0677087 0,-0.0373898 -0.0303189,-0.0677087 -0.0677087,-0.0677087l-1.32229 0z"/>
  </g>
 </g>
</svg>
