<?xml version="1.0" encoding="UTF-8"?>
<!DOCTYPE svg PUBLIC "-//W3C//DTD SVG 1.1//EN" "http://www.w3.org/Graphics/SVG/1.1/DTD/svg11.dtd">
<!-- Creator: CorelDRAW -->
<svg xmlns="http://www.w3.org/2000/svg" xml:space="preserve" width="6.72in" height="6.72in" style="shape-rendering:geometricPrecision; text-rendering:geometricPrecision; image-rendering:optimizeQuality; fill-rule:evenodd; clip-rule:evenodd"
viewBox="0 0 6.72 6.72"
 xmlns:xlink="http://www.w3.org/1999/xlink">
 <defs>
  <style type="text/css">
   <![CDATA[
    .fil1 {fill:white;fill-rule:nonzero}
    .fil0 {fill:url(#id0)}
   ]]>
  </style>
  <linearGradient id="id0" gradientUnits="userSpaceOnUse" x1="1.38953" y1="-0.0529488" x2="5.33047" y2="6.77295">
   <stop offset="0" style="stop-color:#444FF5"/>
   <stop offset="0.490196" style="stop-color:#21BFDB"/>
   <stop offset="1" style="stop-color:#1DABB6"/>
  </linearGradient>
 </defs>
 <g id="Layer_x0020_1">
  <metadata id="CorelCorpID_0Corel-Layer"/>
  <path class="fil0" d="M6.31603 1.65333c0.942567,1.63257 0.383209,3.72013 -1.24937,4.6627 -1.63257,0.942567 -3.72013,0.383209 -4.6627,-1.24937 -0.942567,-1.63257 -0.383209,-3.72013 1.24937,-4.6627 1.63257,-0.942567 3.72013,-0.383209 4.6627,1.24937z"/>
  <g id="_290363888">
   <path id="_290364656" class="fil1" d="M2.78593 3.55819l1.14812 0c0.0373898,0 0.0677087,0.030315 0.0677087,0.0677047l0 1.64856c0,0.0373937 -0.0303189,0.0677087 -0.0677087,0.0677087l-1.14812 0c-0.0373937,0 -0.0677087,-0.030315 -0.0677087,-0.0677087l0 -1.64856c0,-0.0373898 0.030315,-0.0677047 0.0677087,-0.0677047zm1.08041 0.135413l-1.0127 0 0 1.51315 1.0127 0 0 -1.51315z"/>
   <path id="_290365112" class="fil1" d="M3.36 1.68165l1.35072 0c0.0257441,0 0.0481339,0.0143701 0.0595827,0.0355197l0.746047 1.19961 0.000106299 -4.72441e-005c0.0197441,0.031752 0.0100118,0.0735039 -0.0217402,0.093252 -0.0114094,0.00709449 -0.0241142,0.0103858 -0.036622,0.0102126l-2.09809 0 -2.09896 0c-0.0373898,0 -0.0677047,-0.030315 -0.0677047,-0.0677087 0,-0.0145669 0.00459843,-0.028063 0.0124291,-0.0391102l0.746118 -1.19972 -9.84252e-005 -5.90551e-005c0.0129882,-0.0208819 0.0354961,-0.0322441 0.0584134,-0.0319528l1.3498 0zm1.31323 0.135417l-1.31323 0 -1.31322 0 -0.664024 1.06772 1.97725 0 1.97725 0 -0.66402 -1.06772z"/>
   <path id="_290365016" class="fil1" d="M3.36 1.68165l0.887346 0c0.0306929,0 0.0566181,0.0204291 0.0649173,0.0484331l0.489012 1.19693 0.000299213 -0.000122047c0.0141417,0.0346142 -0.00245276,0.0741457 -0.0370709,0.0882874 -0.00883465,0.0036063 -0.0179921,0.00520866 -0.0269606,0.00502756l-1.37754 0 -1.37889 0c-0.0373937,0 -0.0677087,-0.030315 -0.0677087,-0.0677087 0,-0.0114409 0.00284646,-0.0222205 0.00785433,-0.0316693l0.488984 -1.19685 -0.000259843 -0.000216535c0.0108976,-0.026685 0.0368858,-0.0426575 0.0640787,-0.0421024l0.885945 0zm0.842217 0.135417l-0.842217 0 -0.842213 0 -0.436224 1.06772 1.27844 0 1.27844 0 -0.436224 -1.06772z"/>
   <path id="_290364536" class="fil1" d="M3.36 1.68165l0.372961 0c0.0347126,0 0.0633228,0.0261339 0.0672441,0.0597953l0.205996 1.19961 9.44882e-005 -1.9685e-005c0.00632677,0.0368543 -0.0184213,0.0718661 -0.0552756,0.0781929 -0.00420472,0.000720472 -0.00838189,0.00103543 -0.0124961,0.000976378l-0.578524 0 -0.579563 0c-0.0373898,0 -0.0677047,-0.030315 -0.0677047,-0.0677087 0,-0.00523228 0.000590551,-0.0103228 0.0017126,-0.0152126l0.205945 -1.1993 -7.87402e-005 -8.66142e-005c0.00573228,-0.0333976 0.0350276,-0.0568543 0.0678976,-0.056248l0.371791 0zm0.31598 0.135417l-0.31598 0 -0.31598 0 -0.18335 1.06772 0.499331 0 0.499331 0 -0.18335 -1.06772z"/>
   <path id="_290364920" class="fil1" d="M2.01765 1.37784l2.68469 0c0.0373937,0 0.0677087,0.030315 0.0677087,0.0677087l0 0.303807c0,0.0373937 -0.030315,0.0677087 -0.0677087,0.0677087l-2.68469 0c-0.0373937,0 -0.0677087,-0.030315 -0.0677087,-0.0677087l0 -0.303807c0,-0.0373937 0.030315,-0.0677087 0.0677087,-0.0677087zm2.61698 0.135417l-2.54927 0 0 0.16839 2.54927 0 0 -0.16839z"/>
   <path id="_290364320" class="fil1" d="M1.60545 2.88478l3.50909 0c0.0373937,0 0.0677087,0.030315 0.0677087,0.0677087l0 2.32196c0,0.0373937 -0.030315,0.0677087 -0.0677087,0.0677087l-3.50909 0c-0.0373937,0 -0.0677087,-0.030315 -0.0677087,-0.0677087l0 -2.32196c0,-0.0373937 0.030315,-0.0677087 0.0677087,-0.0677087zm3.44138 0.135417l-3.37368 0 0 2.18655 3.37368 0 0 -2.18655z"/>
  </g>
 </g>
</svg>
