<?xml version="1.0" encoding="iso-8859-1"?>
<!-- Generator: Adobe Illustrator 16.0.0, SVG Export Plug-In . SVG Version: 6.00 Build 0)  -->
<!DOCTYPE svg PUBLIC "-//W3C//DTD SVG 1.1//EN" "http://www.w3.org/Graphics/SVG/1.1/DTD/svg11.dtd">
<svg version="1.1" xmlns="http://www.w3.org/2000/svg" xmlns:xlink="http://www.w3.org/1999/xlink" x="0px" y="0px" width="512px"
	 height="512px" viewBox="0 0 512 512" style="enable-background:new 0 0 512 512;" xml:space="preserve">
<g id="_x31__x2C__Mobile_x2C__online_x2C__shop_x2C__marketplace_x2C__Shopping">
	<g>
		<g>
			<path style="fill:#57606F;" d="M367,26.31H145c-21.54,0-39,17.46-39,39c0,19.351,0,367.987,0,381.381c0,21.54,17.46,39,39,39h222
				c21.54,0,39-17.46,39-39c0-14.805,0-322.081,0-381.381C406,43.77,388.54,26.31,367,26.31z"/>
			<path style="fill:#D7DEED;" d="M143.5,101.31c0,36.16,0,273.443,0,309.381h225c0-14.608,0-296.711,0-309.381H143.5z"/>
			<path d="M266,371c5.52,0,10,4.48,10,10s-4.48,10-10,10s-10-4.48-10-10S260.48,371,266,371z"/>
			<path d="M256,429.44c10.36,0,18.75,8.39,18.75,18.75c0,10.35-8.39,18.75-18.75,18.75c-10.36,0-18.75-8.4-18.75-18.75
				C237.25,437.83,245.64,429.44,256,429.44z"/>
			<path d="M236,321c5.52,0,10,4.48,10,10s-4.48,10-10,10s-10-4.48-10-10S230.48,321,236,321z"/>
			<path d="M278.5,71H226c-5.523,0-10-4.478-10-10c0-5.523,4.477-10,10-10h52.5c5.522,0,10,4.477,10,10
				C288.5,66.522,284.022,71,278.5,71z"/>
			<path d="M486,81h-40c-5.522,0-10-4.478-10-10c0-5.523,4.478-10,10-10h40c5.522,0,10,4.477,10,10C496,76.522,491.522,81,486,81z"
				/>
			<path d="M486,111h-40c-5.522,0-10-4.478-10-10c0-5.523,4.478-10,10-10h40c5.522,0,10,4.477,10,10
				C496,106.522,491.522,111,486,111z"/>
			<path d="M486,141h-40c-5.522,0-10-4.478-10-10c0-5.523,4.478-10,10-10h40c5.522,0,10,4.477,10,10
				C496,136.522,491.522,141,486,141z"/>
			<path d="M486,171h-40c-5.522,0-10-4.478-10-10c0-5.523,4.478-10,10-10h40c5.522,0,10,4.477,10,10
				C496,166.522,491.522,171,486,171z"/>
			<path d="M66,81H26c-5.523,0-10-4.478-10-10c0-5.523,4.477-10,10-10h40c5.523,0,10,4.477,10,10C76,76.522,71.523,81,66,81z"/>
			<path d="M66,111H26c-5.523,0-10-4.478-10-10c0-5.523,4.477-10,10-10h40c5.523,0,10,4.477,10,10C76,106.522,71.523,111,66,111z"/>
			<path d="M66,141H26c-5.523,0-10-4.478-10-10c0-5.523,4.477-10,10-10h40c5.523,0,10,4.477,10,10C76,136.522,71.523,141,66,141z"/>
			<path d="M66,171H26c-5.523,0-10-4.478-10-10c0-5.523,4.477-10,10-10h40c5.523,0,10,4.477,10,10C76,166.522,71.523,171,66,171z"/>
			<path d="M226,391c-2.559,0-5.119-0.977-7.071-2.929c-3.905-3.905-3.905-10.237,0-14.143l50-50c3.906-3.904,10.236-3.904,14.143,0
				c3.905,3.905,3.905,10.237,0,14.143l-50,50C231.119,390.023,228.559,391,226,391z"/>
			<path style="fill:#E66767;" d="M156,276c0,8.902-4.717,17.147-12.46,21.63c-0.01,0.01-0.03,0.021-0.04,0.021
				c-3.494,2.047-7.867,3.35-12.5,3.35c-13.81,0-25-11.19-25-25c0,13.81-11.19,25-25,25s-25-11.19-25-25l50-115
				c5.76,0,19.24,0,37.5,0c58.22,0,165.02,0,225,0c16.97,0,30.19,0,37.5,0l50,115c0,13.81-11.19,25-25,25s-25-11.19-25-25
				c0,14.559-12.561,26.49-27.73,24.85c-1.66-0.19-2.753-0.427-3.76-0.71c-0.08-0.01-0.16-0.029-0.24-0.06
				C363.887,297.209,356,287.58,356,276c0,13.81-11.19,25-25,25s-25-11.19-25-25c0,13.81-11.19,25-25,25s-25-11.19-25-25
				c0,13.81-11.19,25-25,25s-25-11.19-25-25c0,13.81-11.19,25-25,25S156,289.81,156,276z"/>
			<path d="M367,495.69H145c-27.019,0-49-21.981-49-49V276c0-5.522,4.477-10,10-10s10,4.478,10,10v170.69c0,15.99,13.009,29,29,29
				h222c15.99,0,29-13.01,29-29V276c0-5.522,4.478-10,10-10s10,4.478,10,10v170.69C416,473.709,394.019,495.69,367,495.69z"/>
			<path d="M406,171c-5.522,0-10-4.478-10-10V65.31c0-15.99-13.01-29-29-29H145c-15.991,0-29,13.01-29,29V161
				c0,5.522-4.477,10-10,10s-10-4.478-10-10V65.31c0-27.019,21.981-49,49-49h222c27.019,0,49,21.981,49,49V161
				C416,166.522,411.522,171,406,171z"/>
			<path d="M368.5,171c-5.522,0-10-4.478-10-10v-49.69h-205V161c0,5.522-4.477,10-10,10s-10-4.478-10-10v-59.69
				c0-5.522,4.477-10,10-10h225c5.522,0,10,4.478,10,10V161C378.5,166.522,374.022,171,368.5,171z"/>
			<path d="M368.5,420.69h-225c-5.523,0-10-4.478-10-10V297.65c0-5.522,4.477-10,10-10s10,4.478,10,10v103.04h205V297.65
				c0-5.522,4.478-10,10-10s10,4.478,10,10v113.04C378.5,416.213,374.022,420.69,368.5,420.69z"/>
			<path d="M431,311c-9.784,0-18.643-4.035-25-10.528c-12.084,12.342-29.953,13.222-42.547,5.813l-0.001,0.001
				c-2.82-1.633-5.395-3.683-7.462-5.804c-13.784,14.063-36.285,13.987-49.99-0.011c-13.757,14.051-36.268,14.026-50,0
				c-13.729,14.022-36.24,14.054-50,0c-13.75,14.044-36.252,14.03-49.99,0.01c-2.366,2.409-4.932,4.341-7.46,5.803l0,0
				c-14.516,8.295-31.723,5.246-42.55-5.813C99.643,306.965,90.784,311,81,311c-19.299,0-35-15.701-35-35
				c0-1.372,0.282-2.729,0.829-3.987l50-115C98.417,153.361,102.019,151,106,151h300c3.981,0,7.583,2.361,9.171,6.013l50,115
				c0.547,1.258,0.829,2.615,0.829,3.987C466,295.299,450.299,311,431,311z M416,276c0,8.271,6.729,15,15,15
				c7.653,0,13.986-5.761,14.89-13.175L399.443,171H112.557L66.11,277.825C67.014,285.239,73.347,291,81,291c8.271,0,15-6.729,15-15
				c0-5.522,4.477-10,10-10s10,4.478,10,10c0,8.661,7.362,15.414,15.566,14.985c0.497-0.028,0.484-0.032,0.753-0.041
				C139.779,290.34,146,283.977,146,276c0-5.522,4.477-10,10-10s10,4.478,10,10c0,8.271,6.729,15,15,15s15-6.729,15-15
				c0-5.522,4.477-10,10-10s10,4.478,10,10c0,8.271,6.729,15,15,15s15-6.729,15-15c0-5.522,4.477-10,10-10c5.522,0,10,4.478,10,10
				c0,8.271,6.729,15,15,15s15-6.729,15-15c0-5.522,4.478-10,10-10s10,4.478,10,10c0,8.271,6.729,15,15,15s15-6.729,15-15
				c0-5.522,4.478-10,10-10s10,4.478,10,10c0,1.785,0.28,3.136,0.729,4.632c0.361,0.928,0.08,0.416,0.879,2.121
				c0.436,0.958,1.375,2.214,1.442,2.314c1.84,2.268,3.395,3.565,6.264,4.817c1.424,0.617,3.552,1.115,5.687,1.115
				c8.271,0,15-6.729,15-15c0-5.522,4.478-10,10-10S416,270.478,416,276z"/>
			<path d="M106,286c-5.523,0-10-4.478-10-10v-35c0-5.523,4.477-10,10-10s10,4.477,10,10v35C116,281.522,111.523,286,106,286z"/>
			<path d="M156,286c-5.523,0-10-4.478-10-10v-35c0-5.523,4.477-10,10-10s10,4.477,10,10v35C166,281.522,161.523,286,156,286z"/>
			<path d="M206,286c-5.523,0-10-4.478-10-10v-35c0-5.523,4.477-10,10-10s10,4.477,10,10v35C216,281.522,211.523,286,206,286z"/>
			<path d="M256,286c-5.523,0-10-4.478-10-10v-35c0-5.523,4.477-10,10-10c5.522,0,10,4.477,10,10v35
				C266,281.522,261.522,286,256,286z"/>
			<path d="M306,286c-5.522,0-10-4.478-10-10v-35c0-5.523,4.478-10,10-10s10,4.477,10,10v35C316,281.522,311.522,286,306,286z"/>
			<path d="M356,286c-5.522,0-10-4.478-10-10v-35c0-5.523,4.478-10,10-10s10,4.477,10,10v35C366,281.522,361.522,286,356,286z"/>
			<path d="M406,286c-5.522,0-10-4.478-10-10v-35c0-5.523,4.478-10,10-10s10,4.477,10,10v35C416,281.522,411.522,286,406,286z"/>
		</g>
	</g>
</g>
<g id="Layer_1">
</g>
</svg>
